<?xml version="1.0" encoding="UTF-8" standalone="no"?>
<!DOCTYPE svg PUBLIC "-//W3C//DTD SVG 1.1//EN" "http://www.w3.org/Graphics/SVG/1.1/DTD/svg11.dtd">
<svg version="1.1" xmlns="http://www.w3.org/2000/svg" xmlns:xlink="http://www.w3.org/1999/xlink" preserveAspectRatio="xMidYMid meet" viewBox="0 0 640 640" width="640" height="640"><defs><path d="M0 0L640 0L640 640L0 640L0 0Z" id="a37s12VGO"></path><path d="M217.11 67.36L221.74 67.79L226.35 68.4L230.94 69.19L235.5 70.15L240.03 71.28L244.52 72.59L248.96 74.07L253.36 75.73L257.7 77.56L261.98 79.56L266.2 81.74L270.34 84.1L274.4 86.63L278.39 89.33L282.28 92.21L286.08 95.26L289.78 98.49L293.38 101.89L296.22 104.78L298.94 107.74L301.54 110.77L304.02 113.86L306.38 117.01L308.61 120.21L310.73 123.47L312.73 126.79L314.61 130.15L316.36 133.56L318 137L319.52 140.49L320.91 144.02L322.19 147.58L323.35 151.17L324.39 154.78L325.31 158.43L326.11 162.09L326.8 165.77L327.36 169.47L327.8 173.19L328.13 176.91L328.34 180.64L328.43 184.37L328.4 188.11L328.25 191.84L327.98 195.57L327.6 199.29L327.1 203L326.48 206.7L325.74 210.38L324.88 214.04L323.91 217.68L322.82 221.3L321.61 224.88L320.29 228.44L318.84 231.96L317.29 235.44L315.61 238.89L313.82 242.29L562.14 486.81L563.13 487.82L564.06 488.85L564.94 489.92L565.78 491.01L566.56 492.13L567.29 493.27L567.97 494.44L568.6 495.62L569.18 496.82L569.71 498.05L570.19 499.28L570.62 500.53L570.99 501.8L571.32 503.07L571.6 504.36L571.83 505.65L572 506.95L572.13 508.25L572.21 509.56L572.23 510.86L572.21 512.17L572.13 513.48L572 514.78L571.83 516.08L571.6 517.37L571.32 518.65L570.99 519.93L570.62 521.19L570.19 522.44L569.71 523.68L569.18 524.9L568.6 526.11L567.97 527.29L567.29 528.45L566.56 529.6L565.78 530.71L564.94 531.81L564.06 532.87L563.13 533.91L562.14 534.92L561.12 535.88L560.07 536.8L558.98 537.67L557.87 538.49L556.74 539.25L555.58 539.97L554.4 540.64L553.19 541.26L551.97 541.83L550.73 542.35L549.48 542.83L548.2 543.25L546.92 543.62L545.63 543.94L544.32 544.21L543.01 544.44L541.69 544.61L540.37 544.73L539.04 544.81L537.71 544.83L536.38 544.81L535.06 544.73L533.73 544.61L532.41 544.44L531.1 544.21L529.8 543.94L528.5 543.62L527.22 543.25L525.95 542.83L524.69 542.35L523.45 541.83L522.23 541.26L521.03 540.64L519.84 539.97L518.68 539.25L517.55 538.49L516.44 537.67L515.36 536.8L514.3 535.88L513.28 534.92L476.63 571L476.11 571.48L475.59 571.94L475.04 572.38L474.49 572.79L473.92 573.18L473.34 573.54L472.75 573.87L472.14 574.19L471.53 574.47L470.91 574.73L470.28 574.97L469.65 575.18L469.01 575.37L468.36 575.53L467.71 575.67L467.06 575.78L466.4 575.87L465.74 575.93L465.08 575.97L464.41 575.98L463.75 575.97L463.09 575.93L462.43 575.87L461.77 575.78L461.11 575.67L460.46 575.53L459.82 575.37L459.17 575.18L458.54 574.97L457.91 574.73L457.29 574.47L456.68 574.19L456.08 573.87L455.49 573.54L454.91 573.18L454.34 572.79L453.78 572.38L453.24 571.94L452.71 571.48L452.2 571L427.76 546.94L427.27 546.44L426.8 545.92L426.35 545.38L425.94 544.83L425.54 544.27L425.17 543.7L424.83 543.12L424.51 542.53L424.22 541.93L423.96 541.32L423.72 540.7L423.5 540.07L423.31 539.44L423.14 538.81L423 538.16L422.89 537.52L422.8 536.87L422.74 536.22L422.7 535.57L422.69 534.92L422.7 534.26L422.74 533.61L422.8 532.96L422.89 532.31L423 531.67L423.14 531.03L423.31 530.39L423.5 529.76L423.72 529.13L423.96 528.52L424.22 527.91L424.51 527.31L424.83 526.71L425.17 526.13L425.54 525.56L425.94 525L426.35 524.45L426.8 523.92L427.27 523.4L427.76 522.89L464.41 486.81L439.98 462.69L403.31 498.84L402.8 499.32L402.27 499.78L401.73 500.22L401.17 500.63L400.6 501.02L400.02 501.38L399.43 501.71L398.83 502.02L398.22 502.31L397.6 502.57L396.97 502.81L396.33 503.02L395.69 503.21L395.05 503.37L394.4 503.51L393.74 503.62L393.08 503.71L392.42 503.77L391.76 503.81L391.1 503.82L390.43 503.81L389.77 503.77L389.11 503.71L388.45 503.62L387.8 503.51L387.15 503.37L386.5 503.21L385.86 503.02L385.22 502.81L384.6 502.57L383.98 502.31L383.36 502.02L382.76 501.71L382.17 501.38L381.59 501.02L381.02 500.63L380.47 500.22L379.92 499.78L379.39 499.32L378.88 498.84L354.45 474.78L353.95 474.27L353.48 473.75L353.04 473.21L352.62 472.66L352.23 472.09L351.86 471.52L351.52 470.94L351.21 470.34L350.92 469.74L350.65 469.13L350.41 468.51L350.19 467.88L350 467.25L349.84 466.61L349.7 465.97L349.59 465.33L349.5 464.68L349.44 464.03L349.4 463.38L349.38 462.72L349.4 462.07L349.44 461.42L349.5 460.77L349.59 460.12L349.7 459.47L349.84 458.83L350 458.2L350.19 457.56L350.41 456.94L350.65 456.32L350.92 455.71L351.21 455.1L351.52 454.51L351.86 453.93L352.23 453.35L352.62 452.79L353.04 452.24L353.48 451.7L353.95 451.17L354.45 450.66L391.1 414.58L264.97 290.4L261.51 292.16L258 293.81L254.46 295.35L250.88 296.77L247.27 298.08L243.62 299.26L239.95 300.34L236.25 301.3L232.53 302.14L228.79 302.86L225.03 303.47L221.26 303.97L217.48 304.35L213.69 304.61L209.9 304.75L206.1 304.78L202.31 304.69L198.52 304.49L194.74 304.17L190.97 303.73L187.21 303.17L183.47 302.5L179.75 301.71L176.05 300.8L172.37 299.78L168.72 298.64L165.11 297.38L161.53 296L157.98 294.5L154.48 292.89L151.02 291.16L147.6 289.31L144.23 287.35L140.92 285.26L137.66 283.06L134.46 280.74L131.31 278.3L128.24 275.74L125.22 273.06L122.28 270.26L118.83 266.72L115.56 263.08L112.46 259.33L109.55 255.5L106.8 251.58L104.24 247.58L101.85 243.5L99.64 239.35L97.6 235.14L95.75 230.86L94.06 226.54L92.56 222.16L91.23 217.74L90.08 213.28L89.11 208.8L88.31 204.28L87.7 199.74L87.25 195.19L86.99 190.62L86.9 186.05L86.99 181.48L87.25 176.92L87.7 172.36L88.31 167.83L89.11 163.31L90.08 158.82L91.23 154.37L92.56 149.95L94.06 145.58L95.75 141.25L97.6 136.98L99.64 132.77L101.85 128.63L104.24 124.55L106.8 120.55L109.55 116.64L112.46 112.8L115.56 109.07L118.83 105.43L122.28 101.89L125.88 98.49L129.58 95.26L133.38 92.21L137.28 89.33L141.26 86.63L145.33 84.1L149.47 81.74L153.68 79.56L157.96 77.56L162.31 75.73L166.7 74.07L171.15 72.59L175.64 71.28L180.16 70.15L184.73 69.19L189.31 68.4L193.92 67.79L198.55 67.36L203.19 67.09L207.83 67.01L212.48 67.09L217.11 67.36ZM203.85 135.2L201.87 135.38L199.89 135.65L197.92 135.98L195.97 136.39L194.02 136.88L192.1 137.44L190.19 138.08L188.31 138.79L186.45 139.57L184.61 140.43L182.8 141.36L181.03 142.37L179.28 143.46L177.58 144.62L175.91 145.85L174.28 147.16L172.69 148.54L171.15 150L169.67 151.51L168.27 153.07L166.95 154.67L165.7 156.31L164.53 157.99L163.43 159.7L162.41 161.45L161.46 163.22L160.59 165.03L159.8 166.86L159.08 168.72L158.43 170.59L157.87 172.49L157.37 174.4L156.96 176.32L156.62 178.26L156.35 180.21L156.16 182.16L156.05 184.12L156.01 186.08L156.05 188.04L156.16 190L156.35 191.95L156.62 193.9L156.96 195.83L157.37 197.76L157.87 199.67L158.43 201.57L159.08 203.44L159.8 205.3L160.59 207.13L161.46 208.93L162.41 210.71L163.43 212.45L164.53 214.17L165.7 215.85L166.95 217.49L168.27 219.09L169.67 220.64L171.15 222.16L172.69 223.61L174.28 224.99L175.91 226.29L177.58 227.52L179.28 228.68L181.03 229.76L182.8 230.76L184.61 231.69L186.45 232.55L188.31 233.33L190.19 234.04L192.1 234.67L194.02 235.23L195.97 235.72L197.92 236.13L199.89 236.46L201.87 236.72L203.85 236.91L205.84 237.02L207.83 237.06L209.82 237.02L211.81 236.91L213.8 236.72L215.77 236.46L217.74 236.13L219.7 235.72L221.64 235.23L223.57 234.67L225.47 234.04L227.36 233.33L229.22 232.55L231.05 231.69L232.86 230.76L234.64 229.76L236.38 228.68L238.09 227.52L239.76 226.29L241.39 224.99L242.97 223.61L244.52 222.16L245.99 220.64L247.39 219.09L248.72 217.49L249.96 215.85L251.14 214.17L252.23 212.45L253.26 210.71L254.2 208.93L255.07 207.13L255.87 205.29L256.59 203.44L257.23 201.56L257.8 199.67L258.29 197.76L258.71 195.83L259.05 193.9L259.31 191.95L259.5 190L259.61 188.04L259.65 186.08L259.61 184.12L259.5 182.16L259.31 180.21L259.05 178.26L258.71 176.32L258.29 174.4L257.8 172.49L257.23 170.59L256.59 168.71L255.87 166.86L255.07 165.03L254.2 163.22L253.26 161.45L252.23 159.7L251.14 157.99L249.96 156.31L248.72 154.67L247.39 153.07L245.99 151.51L244.52 150L242.97 148.54L241.39 147.16L239.76 145.85L238.09 144.62L236.38 143.46L234.64 142.37L232.86 141.36L231.05 140.43L229.22 139.57L227.36 138.79L225.47 138.08L223.57 137.44L221.64 136.88L219.7 136.39L217.74 135.98L215.77 135.65L213.8 135.38L211.81 135.2L209.82 135.09L207.83 135.05L205.84 135.09L203.85 135.2Z" id="cP2q0okTE"></path><path d="M316.56 190.01C316.56 245.24 271.27 290.08 215.48 290.08C159.69 290.08 114.4 245.24 114.4 190.01C114.4 134.79 159.69 89.95 215.48 89.95C271.27 89.95 316.56 134.79 316.56 190.01Z" id="aDcbvyXaF"></path><path d="M262.08 113.66L262.41 113.68L262.74 113.7L263.07 113.74L263.4 113.78L263.72 113.82L264.04 113.88L264.36 113.94L264.68 114.01L264.99 114.08L265.3 114.16L265.61 114.25L265.92 114.35L266.22 114.45L266.52 114.56L266.82 114.67L267.12 114.79L267.41 114.92L267.69 115.06L267.98 115.2L268.26 115.35L268.53 115.5L268.81 115.66L269.08 115.83L269.34 116L269.6 116.18L269.86 116.36L270.11 116.55L270.36 116.75L270.6 116.95L270.84 117.16L271.08 117.38L271.31 117.6L271.53 117.82L271.75 118.06L271.97 118.29L272.18 118.54L272.38 118.79L272.58 119.04L272.71 119.21L272.85 119.4L272.98 119.59L273.12 119.79L273.26 120.01L273.39 120.23L273.53 120.47L273.67 120.71L273.81 120.96L273.94 121.23L274.08 121.5L274.21 121.79L274.34 122.08L274.46 122.39L274.58 122.7L274.7 123.03L274.81 123.36L274.91 123.71L275.01 124.06L275.11 124.43L275.19 124.8L275.27 125.19L275.34 125.59L275.4 125.99L275.45 126.41L275.49 126.84L275.53 127.28L275.55 127.72L275.56 128.18L275.55 128.65L275.54 129.13L275.51 129.62L275.47 130.12L275.42 130.63L275.35 131.15L275.27 131.68L275.17 132.22L275.05 132.77L274.92 133.33L274.77 133.9L247.03 235.85L246.97 236.07L246.91 236.29L246.85 236.5L246.8 236.71L246.74 236.93L246.68 237.14L246.62 237.35L246.57 237.56L246.51 237.77L246.46 237.97L246.4 238.18L246.34 238.38L246.29 238.58L246.23 238.78L246.18 238.98L246.13 239.18L246.07 239.37L246.02 239.56L245.97 239.76L245.92 239.95L245.87 240.13L245.81 240.32L245.76 240.5L245.71 240.68L245.66 240.86L245.62 241.04L245.57 241.22L245.52 241.39L245.47 241.56L245.43 241.73L245.38 241.9L245.33 242.06L245.29 242.22L245.25 242.38L245.2 242.54L245.16 242.69L245.12 242.85L245.08 242.99L245.04 243.14L245 243.28L244.91 243.58L244.83 243.88L244.74 244.2L244.64 244.53L244.54 244.86L244.44 245.2L244.32 245.55L244.2 245.9L244.08 246.26L243.94 246.62L243.8 246.99L243.64 247.36L243.48 247.72L243.31 248.09L243.13 248.45L242.93 248.82L242.73 249.18L242.51 249.53L242.28 249.88L242.04 250.23L241.78 250.57L241.51 250.89L241.23 251.21L240.93 251.52L240.61 251.82L240.28 252.11L239.93 252.38L239.57 252.64L239.18 252.88L238.78 253.11L238.37 253.32L237.93 253.52L237.47 253.69L236.99 253.84L236.49 253.98L235.97 254.09L235.43 254.17L234.87 254.24L234.28 254.28L233.67 254.29L233.57 254.29L233.47 254.29L233.37 254.29L233.26 254.28L233.16 254.28L233.06 254.27L232.96 254.27L232.85 254.26L232.75 254.25L232.65 254.24L232.55 254.23L232.44 254.22L232.34 254.21L232.24 254.2L232.14 254.18L232.04 254.17L231.93 254.15L231.83 254.13L231.73 254.12L231.63 254.1L231.53 254.08L231.43 254.06L231.33 254.04L231.23 254.01L231.13 253.99L231.03 253.97L230.93 253.94L230.83 253.91L230.73 253.89L230.63 253.86L230.53 253.83L230.43 253.8L230.33 253.77L230.24 253.74L230.14 253.7L230.04 253.67L229.94 253.63L229.85 253.6L229.75 253.56L229.65 253.52L229.61 253.51L229.57 253.49L229.52 253.47L229.48 253.45L229.44 253.43L229.4 253.41L229.35 253.4L229.31 253.38L229.27 253.36L229.23 253.34L229.19 253.32L229.14 253.3L229.1 253.28L229.06 253.26L229.02 253.24L228.98 253.22L228.93 253.2L228.89 253.18L228.85 253.16L228.81 253.14L228.77 253.12L228.73 253.1L228.69 253.08L228.65 253.06L228.61 253.04L228.57 253.01L228.52 252.99L228.48 252.97L228.44 252.95L228.4 252.93L228.36 252.9L228.32 252.88L228.28 252.86L228.24 252.84L228.2 252.81L228.17 252.79L228.13 252.77L228.09 252.74L228.05 252.72L228.01 252.69L227.88 252.64L227.75 252.59L227.61 252.53L227.46 252.47L227.31 252.41L227.15 252.34L226.99 252.28L226.83 252.21L226.66 252.14L226.48 252.06L226.3 251.99L226.12 251.91L225.93 251.84L225.73 251.76L225.54 251.68L225.33 251.59L225.13 251.51L224.92 251.42L224.7 251.33L224.49 251.24L224.26 251.15L224.04 251.06L223.81 250.97L223.58 250.87L223.34 250.78L223.1 250.68L222.86 250.58L222.62 250.48L222.37 250.38L222.12 250.28L221.87 250.17L221.61 250.07L221.35 249.96L221.09 249.86L220.83 249.75L220.57 249.64L220.3 249.53L220.03 249.42L219.76 249.31L219.49 249.2L201.3 241.79L201.22 241.75L201.14 241.72L201.05 241.69L200.97 241.65L200.89 241.62L200.81 241.59L200.72 241.55L200.64 241.52L200.55 241.49L200.47 241.45L200.38 241.42L200.29 241.38L200.21 241.35L199.85 241.2L199.67 241.13L199.58 241.09L199.49 241.06L199.39 241.02L199.3 240.98L199.21 240.95L199.11 240.91L199.02 240.87L198.93 240.83L198.83 240.79L198.73 240.76L198.64 240.72L198.54 240.68L198.45 240.64L198.35 240.6L198.25 240.56L198.16 240.52L198.06 240.48L197.96 240.44L197.86 240.4L197.76 240.36L197.66 240.32L197.63 240.62L197.6 240.92L197.56 241.21L197.52 241.5L197.47 241.78L197.41 242.06L197.35 242.34L197.29 242.61L197.22 242.88L197.15 243.15L197.07 243.41L197 243.67L196.91 243.92L196.83 244.17L196.74 244.41L196.65 244.65L196.56 244.89L196.47 245.12L196.37 245.35L196.28 245.57L196.18 245.78L196.08 245.99L195.99 246.2L195.89 246.4L195.79 246.59L195.69 246.78L195.59 246.97L195.49 247.15L195.4 247.32L195.3 247.49L195.21 247.65L195.12 247.8L195.03 247.95L194.94 248.1L194.86 248.23L194.78 248.37L194.7 248.49L194.62 248.61L194.55 248.72L194.48 248.82L193.65 250.18L192.85 251.48L192.08 252.73L191.34 253.92L190.64 255.06L189.96 256.15L189.31 257.19L188.68 258.18L188.08 259.12L187.5 260.02L186.94 260.87L186.4 261.67L185.88 262.43L185.38 263.15L184.89 263.83L184.42 264.47L183.97 265.07L183.52 265.63L183.09 266.15L182.67 266.64L182.25 267.1L181.84 267.52L181.44 267.91L181.04 268.26L180.64 268.59L180.25 268.89L179.85 269.16L179.46 269.4L179.06 269.62L178.66 269.81L178.25 269.98L177.84 270.12L177.42 270.25L176.99 270.35L176.55 270.44L176.1 270.51L175.64 270.56L175.16 270.59L174.67 270.61L174.16 270.62L173.82 270.61L173.48 270.6L173.15 270.57L172.82 270.53L172.49 270.49L172.17 270.43L171.84 270.36L171.52 270.29L171.2 270.2L170.89 270.1L170.58 270L170.27 269.88L169.97 269.76L169.67 269.63L169.37 269.48L169.08 269.33L168.8 269.17L168.51 269.01L168.24 268.83L167.97 268.65L167.7 268.46L167.44 268.26L167.19 268.05L166.94 267.84L166.7 267.62L166.46 267.39L166.23 267.16L166.01 266.91L165.8 266.66L165.59 266.41L165.39 266.15L165.2 265.88L165.01 265.61L164.83 265.33L164.66 265.04L164.5 264.75L164.35 264.45L164.21 264.15L164.07 263.84L163.95 263.53L163.89 263.39L163.81 263.2L163.72 262.98L163.61 262.72L163.49 262.43L163.35 262.11L163.2 261.75L163.03 261.36L162.85 260.94L162.65 260.49L162.44 260.01L162.22 259.51L161.99 258.98L161.74 258.43L161.49 257.85L161.22 257.25L160.95 256.62L160.66 255.98L160.37 255.32L160.07 254.64L159.76 253.94L159.44 253.23L159.12 252.5L158.79 251.76L158.45 251.01L158.11 250.24L157.76 249.46L157.41 248.68L157.06 247.89L156.7 247.09L156.34 246.28L155.97 245.47L155.61 244.65L155.24 243.84L154.87 243.02L154.51 242.2L154.14 241.38L153.77 240.57L153.4 239.75L153.04 238.94L153.03 238.91L153.01 238.87L153 238.85L152.99 238.83L152.98 238.8L152.97 238.79L152.96 238.76L152.95 238.74L152.94 238.72L152.93 238.69L152.92 238.67L152.92 238.65L152.91 238.63L152.71 238.13L152.52 237.64L152.34 237.14L152.17 236.65L152.01 236.15L151.86 235.66L151.73 235.18L151.6 234.69L151.49 234.21L151.38 233.73L151.29 233.25L151.21 232.78L151.14 232.31L151.08 231.84L151.03 231.38L150.99 230.92L150.96 230.46L150.95 230.01L150.94 229.56L150.95 229.11L150.96 228.67L150.99 228.23L151.03 227.8L151.08 227.37L151.14 226.95L151.21 226.52L151.29 226.11L151.38 225.7L151.49 225.29L151.6 224.89L151.73 224.49L151.87 224.1L152.01 223.72L152.17 223.34L152.34 222.96L152.52 222.59L152.71 222.23L152.92 221.87L153.13 221.52L153.35 221.17L153.37 221.15L153.38 221.12L153.4 221.1L153.42 221.08L153.43 221.06L153.45 221.04L153.47 221.02L153.48 221L153.5 220.98L153.52 220.96L153.53 220.93L153.55 220.91L153.57 220.89L153.59 220.87L153.61 220.85L153.62 220.83L153.64 220.82L153.66 220.8L153.68 220.78L153.7 220.76L153.71 220.74L153.77 220.68L153.79 220.66L153.81 220.64L153.82 220.62L153.84 220.6L153.86 220.58L153.88 220.56L153.9 220.54L153.91 220.52L153.93 220.5L153.95 220.48L153.97 220.46L153.99 220.44L154 220.42L154.02 220.4L154.04 220.37L154.05 220.35L154.01 220.36L153.97 220.36L153.92 220.36L153.88 220.36L153.83 220.37L153.79 220.37L153.75 220.37L153.7 220.38L153.66 220.38L153.62 220.38L153.57 220.39L153.53 220.39L153.49 220.39L153.44 220.4L153.31 220.41L153.27 220.41L153.23 220.42L153.18 220.42L153.14 220.42L153.1 220.43L153.05 220.43L153.01 220.43L152.97 220.44L152.92 220.44L152.88 220.44L152.83 220.44L152.79 220.45L152.75 220.45L152.7 220.45L152.66 220.45L152.62 220.46L152.57 220.46L152.53 220.46L152.48 220.46L152.44 220.46L152.4 220.46L152.35 220.46L152.31 220.46L152.03 220.46L151.75 220.46L151.47 220.45L151.19 220.44L150.91 220.43L150.64 220.42L150.36 220.4L150.09 220.39L149.82 220.37L149.55 220.34L149.28 220.32L149.01 220.29L148.74 220.26L148.47 220.23L148.21 220.2L147.94 220.16L147.68 220.12L147.42 220.08L147.15 220.04L146.89 219.99L146.64 219.94L146.38 219.89L146.12 219.84L145.87 219.78L145.61 219.73L145.36 219.67L145.11 219.61L144.86 219.54L144.61 219.47L144.36 219.41L144.12 219.33L143.87 219.26L143.63 219.19L143.39 219.11L143.14 219.03L142.9 218.95L142.67 218.86L142.43 218.77L142.19 218.68L141.96 218.59L125.54 212.1L124.84 211.81L124.16 211.5L123.52 211.19L122.91 210.87L122.32 210.53L121.76 210.19L121.23 209.84L120.72 209.48L120.24 209.11L119.78 208.74L119.35 208.37L118.94 207.99L118.56 207.6L118.19 207.21L117.85 206.82L117.53 206.43L117.23 206.04L116.95 205.64L116.69 205.25L116.44 204.85L116.22 204.46L116.01 204.07L115.81 203.69L115.64 203.31L115.48 202.93L115.33 202.56L115.2 202.19L115.07 201.83L114.97 201.48L114.87 201.14L114.79 200.8L114.71 200.47L114.65 200.16L114.59 199.85L114.55 199.56L114.51 199.28L114.48 199.01L114.45 198.76L114.43 198.52L114.42 198.29L114.41 198.07L114.4 197.83L114.4 197.57L114.41 197.3L114.41 197.02L114.43 196.73L114.45 196.42L114.48 196.1L114.52 195.77L114.57 195.42L114.63 195.07L114.7 194.71L114.79 194.34L114.88 193.96L114.99 193.58L115.11 193.19L115.24 192.79L115.4 192.38L115.56 191.98L115.75 191.56L115.95 191.15L116.17 190.73L116.4 190.31L116.66 189.88L116.94 189.46L117.24 189.03L117.56 188.61L117.9 188.19L118.27 187.76L118.66 187.34L119.07 186.93L119.51 186.51L119.98 186.1L120.47 185.7L120.99 185.3L121.54 184.9L122.12 184.51L122.73 184.13L123.37 183.76L124.03 183.4L252.51 116.03L252.74 115.92L252.97 115.8L253.19 115.69L253.42 115.58L253.64 115.48L253.87 115.37L254.09 115.27L254.32 115.18L254.55 115.08L254.77 114.99L255 114.9L255.22 114.82L255.44 114.74L255.67 114.66L255.89 114.58L256.12 114.51L256.34 114.44L256.56 114.37L256.79 114.31L257.01 114.25L257.23 114.19L257.46 114.13L257.68 114.08L257.9 114.03L258.12 113.98L258.34 113.94L258.57 113.9L258.79 113.86L259.01 113.83L259.23 113.8L259.45 113.77L259.67 113.74L259.89 113.72L260.11 113.7L260.33 113.68L260.54 113.67L260.76 113.66L260.98 113.65L261.2 113.65L261.41 113.65L261.75 113.65L262.08 113.66ZM163.59 226.25L163.17 226.44L162.8 226.7L162.49 227.02L162.24 227.4L162.05 227.84L161.9 228.33L161.81 228.87L161.78 229.46L161.79 230.09L161.86 230.75L161.97 231.45L162.14 232.17L162.35 232.92L162.61 233.7L162.92 234.49L163.02 234.71L163.31 235.35L163.76 236.36L164.36 237.68L165.07 239.26L165.87 241.05L166.74 242.99L167.66 245.05L168.6 247.15L169.54 249.26L170.46 251.32L171.32 253.28L172.12 255.08L172.82 256.68L173.4 258.03L173.83 259.06L174.1 259.74L174.11 259.75L174.11 259.75L174.11 259.76L174.11 259.76L174.11 259.76L174.12 259.76L174.12 259.77L174.13 259.77L174.13 259.77L174.13 259.77L174.13 259.77L174.14 259.78L174.14 259.78L174.15 259.78L174.15 259.78L174.38 259.64L174.74 259.26L175.21 258.65L175.79 257.86L176.46 256.89L177.19 255.8L177.98 254.6L178.8 253.31L179.65 251.99L180.51 250.64L181.35 249.29L182.17 247.99L182.94 246.75L183.66 245.6L184.31 244.58L184.87 243.71L185.32 243.02L185.84 242.18L186.26 241.41L186.56 240.7L186.77 240.06L186.87 239.46L186.87 238.91L186.77 238.39L186.57 237.9L186.28 237.44L185.88 236.98L185.4 236.54L184.81 236.1L184.14 235.65L183.37 235.18L182.52 234.7L181.57 234.18L180.54 233.63L179.79 233.26L179.39 233.11L179.11 233L178.84 232.88L178.57 232.76L178.3 232.64L178.03 232.52L177.77 232.39L177.51 232.26L177.25 232.13L176.99 231.99L176.74 231.85L176.49 231.71L176.25 231.57L176 231.42L175.76 231.27L175.52 231.12L175.28 230.96L175.05 230.8L167.15 226.7L166.98 226.63L166.81 226.56L166.64 226.5L166.48 226.44L166.32 226.39L166.16 226.34L166 226.3L165.85 226.26L165.7 226.23L165.55 226.2L165.41 226.17L165.27 226.15L165.13 226.13L164.99 226.12L164.86 226.11L164.73 226.1L164.61 226.1L164.07 226.14L163.59 226.25ZM261.25 124.49L261.17 124.49L261.08 124.5L261 124.51L260.92 124.51L260.83 124.52L260.74 124.53L260.65 124.54L260.57 124.56L260.48 124.57L260.39 124.59L260.3 124.61L260.2 124.62L260.11 124.64L260.02 124.67L259.92 124.69L259.83 124.71L259.73 124.74L259.64 124.77L259.54 124.8L259.44 124.83L259.34 124.86L259.24 124.89L259.14 124.93L259.04 124.96L258.94 125L258.84 125.04L258.74 125.08L258.63 125.12L258.53 125.17L258.42 125.21L258.32 125.26L258.21 125.3L258.1 125.35L258 125.41L257.89 125.46L257.78 125.51L257.67 125.57L257.56 125.63L129.07 193L128.68 193.21L128.32 193.43L127.97 193.65L127.65 193.87L127.34 194.1L127.06 194.33L126.8 194.56L126.56 194.8L126.33 195.04L126.13 195.28L125.95 195.52L125.79 195.76L125.65 196.01L125.53 196.25L125.43 196.5L125.36 196.75L125.3 197L125.26 197.24L125.24 197.49L125.25 197.73L125.27 197.98L125.31 198.22L125.38 198.46L125.46 198.7L125.56 198.94L125.69 199.18L125.83 199.41L126 199.64L126.18 199.86L126.39 200.08L126.61 200.3L126.86 200.51L127.12 200.72L127.41 200.93L127.71 201.13L128.04 201.32L128.39 201.51L128.75 201.69L129.14 201.86L129.54 202.03L145.95 208.52L146.09 208.57L146.24 208.63L146.38 208.68L146.52 208.73L146.67 208.78L146.82 208.83L146.97 208.87L147.12 208.92L147.27 208.96L147.42 209L147.57 209.05L147.72 209.09L147.88 209.12L148.03 209.16L148.19 209.2L148.35 209.23L148.51 209.26L148.66 209.29L148.82 209.32L148.98 209.35L149.15 209.38L149.31 209.4L149.47 209.43L149.63 209.45L149.8 209.47L149.96 209.49L150.13 209.51L150.29 209.53L150.46 209.54L150.62 209.56L150.79 209.57L150.96 209.58L151.13 209.59L151.29 209.6L151.46 209.61L151.63 209.61L151.8 209.62L151.97 209.62L152.14 209.62L152.31 209.62L152.65 209.62L152.98 209.61L153.32 209.6L153.65 209.58L153.99 209.56L154.32 209.53L154.66 209.5L154.99 209.46L155.33 209.42L155.67 209.38L156 209.32L156.33 209.27L156.67 209.21L157 209.14L157.33 209.07L157.65 208.99L157.98 208.91L158.3 208.83L158.63 208.74L158.95 208.64L159.26 208.55L159.58 208.44L159.89 208.34L160.2 208.22L160.5 208.11L160.81 207.99L161.11 207.86L161.4 207.73L161.69 207.6L161.98 207.46L162.26 207.32L162.54 207.17L162.81 207.02L163.08 206.86L163.35 206.7L163.6 206.54L163.86 206.37L164.1 206.2L164.35 206.02L164.58 205.85L235.83 149.64L235.99 149.52L236.14 149.4L236.29 149.29L236.44 149.17L236.58 149.06L236.72 148.96L236.86 148.86L236.99 148.76L237.12 148.66L237.25 148.57L237.37 148.48L237.49 148.39L237.61 148.31L237.72 148.22L237.83 148.15L237.94 148.07L238.04 148L238.15 147.93L238.24 147.87L238.34 147.8L238.43 147.74L238.52 147.69L238.6 147.64L238.69 147.58L238.77 147.54L238.84 147.49L238.91 147.45L238.98 147.41L239.05 147.38L239.11 147.35L239.17 147.32L239.23 147.29L239.28 147.27L239.33 147.25L239.38 147.23L239.42 147.22L239.46 147.21L239.5 147.2L239.53 147.2L239.57 147.2L239.6 147.2L239.63 147.21L239.65 147.22L239.67 147.23L239.69 147.26L239.69 147.28L239.7 147.31L239.7 147.35L239.69 147.39L239.68 147.43L239.66 147.48L239.64 147.53L239.62 147.59L239.58 147.65L239.55 147.72L239.5 147.79L239.46 147.87L239.4 147.95L239.35 148.03L239.28 148.12L239.22 148.22L239.14 148.31L239.07 148.42L238.98 148.53L238.89 148.64L238.8 148.75L238.7 148.88L238.6 149L238.49 149.13L238.37 149.27L238.25 149.41L238.13 149.55L238 149.7L237.86 149.85L237.72 150.01L237.58 150.17L237.43 150.33L237.27 150.5L237.11 150.68L236.94 150.86L180.63 211.15L180.38 211.43L180.15 211.7L179.93 211.98L179.72 212.25L179.53 212.53L179.35 212.82L179.18 213.1L179.03 213.38L178.89 213.66L178.77 213.95L178.66 214.23L178.56 214.52L178.47 214.8L178.4 215.08L178.34 215.37L178.29 215.65L178.26 215.93L178.24 216.21L178.23 216.49L178.23 216.77L178.25 217.04L178.28 217.31L178.32 217.58L178.38 217.85L178.44 218.12L178.52 218.38L178.62 218.64L178.72 218.89L178.84 219.14L178.96 219.39L179.1 219.63L179.26 219.87L179.42 220.11L179.6 220.34L179.79 220.56L179.99 220.78L180.2 221L180.42 221.21L180.66 221.41L180.9 221.6L184.3 223.37L185.22 223.74L185.65 223.9L186.08 224.07L186.53 224.25L186.99 224.42L187.46 224.61L187.94 224.79L188.42 224.98L188.92 225.18L189.43 225.38L189.94 225.58L190.46 225.78L190.98 225.99L191.51 226.2L192.05 226.41L192.58 226.62L193.12 226.84L193.67 227.05L194.21 227.27L194.76 227.49L195.31 227.7L195.86 227.92L196.4 228.14L196.95 228.36L197.49 228.57L198.03 228.79L198.57 229L199.1 229.22L199.63 229.43L200.16 229.64L200.67 229.85L201.18 230.05L201.69 230.25L202.18 230.45L202.67 230.65L203.15 230.84L203.62 231.03L204.07 231.21L204.52 231.39L204.95 231.57L205.37 231.74L223.58 239.15L224.4 239.49L224.8 239.66L225.2 239.82L225.59 239.98L225.98 240.14L226.37 240.3L226.74 240.45L227.11 240.6L227.48 240.75L227.83 240.9L228.18 241.04L228.53 241.18L228.86 241.32L229.18 241.45L229.5 241.58L229.81 241.71L230.11 241.83L230.4 241.95L230.67 242.06L230.94 242.17L231.2 242.28L231.45 242.38L231.68 242.48L231.9 242.57L232.12 242.66L232.31 242.74L232.5 242.82L232.67 242.89L232.83 242.96L232.98 243.02L233.11 243.07L233.23 243.12L233.33 243.17L233.42 243.21L233.49 243.24L233.55 243.26L233.59 243.28L233.62 243.3L233.63 243.3L233.63 243.31L233.63 243.31L233.63 243.32L233.63 243.33L233.63 243.34L233.64 243.35L233.64 243.37L233.64 243.37L233.65 243.38L233.65 243.4L233.66 243.41L233.66 243.41L233.66 243.42L233.67 243.42L233.67 243.43L233.67 243.44L233.68 243.44L233.68 243.44L233.69 243.43L233.69 243.41L233.71 243.36L233.73 243.3L233.75 243.23L233.77 243.14L233.81 243.03L233.84 242.91L233.88 242.77L233.92 242.62L233.97 242.45L234.02 242.27L234.08 242.08L234.13 241.87L234.2 241.65L234.26 241.42L234.33 241.18L234.4 240.92L234.47 240.65L234.55 240.37L234.63 240.09L234.71 239.79L234.8 239.48L234.89 239.16L234.98 238.83L235.07 238.49L235.17 238.14L235.27 237.79L235.37 237.42L235.47 237.05L235.57 236.68L235.68 236.29L235.78 235.9L235.89 235.5L236 235.1L236.12 234.69L236.23 234.27L236.34 233.85L236.46 233.43L236.58 233L264.31 131.05L264.39 130.74L264.46 130.44L264.52 130.15L264.58 129.86L264.62 129.58L264.66 129.3L264.69 129.04L264.71 128.78L264.72 128.52L264.72 128.28L264.72 128.04L264.7 127.81L264.68 127.58L264.65 127.36L264.62 127.15L264.57 126.95L264.52 126.76L264.46 126.57L264.4 126.39L264.32 126.22L264.24 126.05L264.15 125.89L264.06 125.75L263.95 125.61L263.84 125.47L263.73 125.35L263.6 125.23L263.47 125.12L263.33 125.02L263.19 124.93L263.04 124.85L262.89 124.77L262.72 124.71L262.55 124.65L262.38 124.6L262.2 124.56L262.01 124.53L261.82 124.51L261.62 124.49L261.41 124.49L261.33 124.49L261.25 124.49Z" id="e98MNh8ZP"></path></defs><g visibility="inherit"><g visibility="inherit"><g visibility="inherit"><use xlink:href="#a37s12VGO" opacity="1" fill="#0277bd" fill-opacity="1"></use></g><g visibility="inherit"><use xlink:href="#cP2q0okTE" opacity="1" fill="#ffffff" fill-opacity="1"></use><g><use xlink:href="#cP2q0okTE" opacity="1" fill-opacity="0" stroke="#000000" stroke-width="1" stroke-opacity="0"></use></g></g><g visibility="inherit"><use xlink:href="#aDcbvyXaF" opacity="1" fill="#ffffff" fill-opacity="1"></use></g><g visibility="inherit"><use xlink:href="#e98MNh8ZP" opacity="1" fill="#0277bd" fill-opacity="1"></use></g></g></g></svg>